<svg width="383" height="489" viewBox="0 0 383 489" fill="none" xmlns="http://www.w3.org/2000/svg">
<path d="M0 443.593C0 461.764 21.0428 471.844 35.2029 460.455L144.734 372.361C148.578 369.269 153.363 367.583 158.297 367.583H209.478C305.091 367.583 382.6 290.074 382.6 194.461V187.536C382.6 91.9235 305.091 14.4141 209.478 14.4141H21.6403C9.68868 14.4141 0 24.1027 0 36.0543V443.593Z" fill="url(#paint0_linear_3290_686)"/>
<path d="M185.472 217.14C189.186 213.527 194.031 211.304 199.191 210.844L226.048 208.445L214.14 184.263C211.848 179.614 211.228 174.316 212.384 169.263L218.406 142.985L191.725 146.841C186.594 147.581 181.365 146.53 176.918 143.866L153.789 130.022L149.205 156.593C148.323 161.695 145.712 166.339 141.81 169.743L121.495 187.469L145.344 200.04C149.927 202.453 153.54 206.371 155.574 211.134L166.155 235.939L185.472 217.14ZM137.261 215.384L97.7536 194.56C97.0066 194.167 96.3667 193.597 95.8892 192.9C95.4117 192.204 95.1108 191.401 95.0127 190.563C94.9146 189.724 95.0221 188.874 95.326 188.086C95.6299 187.298 96.121 186.596 96.7569 186.04L130.41 156.675C131.309 155.89 131.91 154.821 132.114 153.646L139.713 109.631C139.857 108.8 140.201 108.016 140.716 107.347C141.231 106.678 141.901 106.145 142.668 105.792C143.435 105.44 144.276 105.28 145.119 105.325C145.962 105.371 146.781 105.62 147.505 106.053L185.833 128.989C186.858 129.599 188.061 129.839 189.242 129.667L233.446 123.291C234.283 123.17 235.137 123.254 235.933 123.537C236.73 123.82 237.446 124.293 238.019 124.915C238.592 125.536 239.004 126.288 239.221 127.106C239.438 127.923 239.453 128.78 239.264 129.605L229.298 173.14C229.03 174.303 229.17 175.522 229.695 176.594L249.424 216.666C249.796 217.425 249.977 218.262 249.953 219.106C249.929 219.95 249.7 220.776 249.285 221.512C248.871 222.248 248.283 222.872 247.574 223.329C246.864 223.787 246.053 224.066 245.212 224.14L200.733 228.119C199.545 228.226 198.43 228.738 197.575 229.569L165.558 260.711C164.953 261.3 164.213 261.732 163.403 261.97C162.592 262.209 161.736 262.246 160.908 262.08C160.08 261.914 159.305 261.548 158.65 261.016C157.995 260.483 157.479 259.799 157.148 259.022L139.621 217.946C139.152 216.846 138.318 215.942 137.261 215.384ZM120.281 221.607L132.032 234.36L67.8268 289.315L56.0676 276.553L120.281 221.607Z" fill="white"/>
<g filter="url(#filter0_b_3290_686)">
<path d="M362.125 84.0043C362.125 97.1618 351.459 107.828 338.301 107.828H281.124C267.967 107.828 257.3 97.1618 257.3 84.0043V26.8272C257.3 13.6697 267.967 3.00343 281.124 3.00343H338.301C351.459 3.00343 362.125 13.6697 362.125 26.8272V84.0043Z" fill="black" fill-opacity="0.27"/>
<path d="M281.124 108.881H338.301C352.04 108.881 363.178 97.7432 363.178 84.0043V26.8272C363.178 13.0884 352.04 1.95082 338.301 1.95082H281.124C267.385 1.95082 256.248 13.0884 256.248 26.8272V84.0043C256.248 97.7432 267.385 108.881 281.124 108.881Z" stroke="url(#paint1_linear_3290_686)" stroke-width="2.10521"/>
</g>
<path d="M320.802 78.3231H315.254L310.686 66.3797H291.172L286.603 78.3231H281.121L297.894 35.2486H304.094L320.802 78.3231ZM293.064 61.4849H308.793L300.896 40.2739L293.064 61.4849Z" fill="white"/>
<path d="M331.189 39.4255C330.014 39.4255 329.057 39.0774 328.318 38.3813C327.621 37.6416 327.273 36.6844 327.273 35.5096C327.273 34.3349 327.621 33.3994 328.318 32.7032C329.057 31.9636 330.014 31.5938 331.189 31.5938C332.364 31.5938 333.299 31.9636 333.996 32.7032C334.735 33.3994 335.105 34.3349 335.105 35.5096C335.105 36.6844 334.735 37.6416 333.996 38.3813C333.299 39.0774 332.364 39.4255 331.189 39.4255ZM333.8 45.6909V78.3231H328.579V45.6909H333.8Z" fill="white"/>
<defs>
<filter id="filter0_b_3290_686" x="231.372" y="-22.9254" width="156.683" height="156.679" filterUnits="userSpaceOnUse" color-interpolation-filters="sRGB">
<feFlood flood-opacity="0" result="BackgroundImageFix"/>
<feGaussianBlur in="BackgroundImageFix" stdDeviation="11.9119"/>
<feComposite in2="SourceAlpha" operator="in" result="effect1_backgroundBlur_3290_686"/>
<feBlend mode="normal" in="SourceGraphic" in2="effect1_backgroundBlur_3290_686" result="shape"/>
</filter>
<linearGradient id="paint0_linear_3290_686" x1="316.69" y1="488.13" x2="-124.544" y2="134.037" gradientUnits="userSpaceOnUse">
<stop stop-color="#FF8CDF"/>
<stop offset="0.608122" stop-color="#E60023"/>
<stop offset="1" stop-color="#E60023"/>
</linearGradient>
<linearGradient id="paint1_linear_3290_686" x1="257.3" y1="8.16524" x2="351.007" y2="107.828" gradientUnits="userSpaceOnUse">
<stop stop-color="#E60023"/>
<stop offset="1" stop-color="white"/>
</linearGradient>
</defs>
</svg>
